<svg xmlns="http://www.w3.org/2000/svg" xmlns:xlink="http://www.w3.org/1999/xlink" viewBox="0 0 430 430" width="430" height="430" preserveAspectRatio="xMidYMid meet" style="width: 100%; height: 100%; transform: translate3d(0px, 0px, 0px); content-visibility: visible;"><defs><clipPath id="__lottie_element_2"><rect width="430" height="430" x="0" y="0"/></clipPath><clipPath id="__lottie_element_4"><path d="M0,0 L430,0 L430,430 L0,430z"/></clipPath><g id="__lottie_element_14"><g transform="matrix(0.8799999952316284,0,0,1,5,-25)" opacity="1" style="display: block;"><g opacity="1" transform="matrix(1,0,0,1,250,349.6310119628906)"><path class="tertiary" fill="rgb(197,156,244)" fill-opacity="1" d=" M66.23094177246094,-87.04979705810547 C66.23094177246094,-87.04979705810547 75.1334228515625,-85.8879623413086 75.1334228515625,-85.8879623413086 C108.17806243896484,-84.5872802734375 142.0614471435547,-64.90076446533203 142.0614471435547,-21.420761108398438 C142.0614471435547,-21.420761108398438 163.959228515625,64.04564666748047 163.959228515625,64.04564666748047 C163.959228515625,72.50464630126953 157.09725952148438,79.36568450927734 148.6382598876953,79.36568450927734 C148.6382598876953,79.36568450927734 129.20826721191406,79.36568450927734 129.20826721191406,79.36568450927734 C90.72126007080078,82.35468292236328 49.06999969482422,71.43199920654297 16.898000717163086,71.43199920654297 C16.898000717163086,71.43199920654297 -16.898000717163086,71.43199920654297 -16.898000717163086,71.43199920654297 C-49.06999969482422,71.43199920654297 -48.57699966430664,57.60599899291992 -87.06400299072266,54.617000579833984 C-87.06400299072266,54.617000579833984 -106.49400329589844,54.617000579833984 -106.49400329589844,54.617000579833984 C-114.9530029296875,54.617000579833984 -121.81500244140625,47.75600051879883 -121.81500244140625,39.297000885009766 C-121.81500244140625,39.297000885009766 -121.81500244140625,7.784999847412109 -121.81500244140625,7.784999847412109 C-121.81500244140625,-35.69499969482422 -73.85624694824219,-66.41532135009766 -30.520769119262695,-62.938148498535156 C-30.520769119262695,-62.938148498535156 -20.58351707458496,-61.701900482177734 -20.58351707458496,-61.701900482177734"/></g></g></g><g id="__lottie_element_26"><g transform="matrix(0.9448018074035645,0.3276424705982208,-0.3276424705982208,0.9448018074035645,94.33837890625,-87.28871154785156)" opacity="1" style="display: block;"><g opacity="1" transform="matrix(1,0,0,1,249.43899536132812,220.58200073242188)"><path class="primary" fill="rgb(249,201,192)" fill-opacity="1" d=" M29,-118.90399932861328 C29,-118.90399932861328 62,-90.76899719238281 62,-90.76899719238281 C62,-90.76899719238281 61.965999603271484,-13.8149995803833 61.965999603271484,-13.8149995803833 C61.965999603271484,19.990999221801758 34.553001403808594,47.40399932861328 0.746999979019165,47.40399932861328 C0.746999979019165,47.40399932861328 -0.746999979019165,47.40399932861328 -0.746999979019165,47.40399932861328 C-34.553001403808594,47.40399932861328 -61.965999603271484,19.990999221801758 -61.965999603271484,-13.8149995803833 C-61.965999603271484,-13.8149995803833 -61.93199920654297,-90.34300231933594 -61.93199920654297,-90.34300231933594"/></g></g></g><filter id="__lottie_element_32" filterUnits="objectBoundingBox" x="0%" y="0%" width="100%" height="100%"><feComponentTransfer in="SourceGraphic"><feFuncA type="table" tableValues="1.0 0.0"/></feComponentTransfer></filter><mask id="__lottie_element_26_2" mask-type="alpha"><g filter="url(#__lottie_element_32)"><rect width="430" height="430" x="0" y="0" fill="#ffffff" opacity="0"/><use xmlns:ns1="http://www.w3.org/1999/xlink" ns1:href="#__lottie_element_26"/></g></mask><filter id="__lottie_element_33" filterUnits="objectBoundingBox" x="0%" y="0%" width="100%" height="100%"><feComponentTransfer in="SourceGraphic"><feFuncA type="table" tableValues="1.0 0.0"/></feComponentTransfer></filter><mask id="__lottie_element_14_2" mask-type="alpha"><g filter="url(#__lottie_element_33)"><rect width="430" height="430" x="0" y="0" fill="#ffffff" opacity="0"/><use xmlns:ns2="http://www.w3.org/1999/xlink" ns2:href="#__lottie_element_14"/></g></mask></defs><g clip-path="url(#__lottie_element_2)"><g clip-path="url(#__lottie_element_4)" transform="matrix(1,0,0,1,0,0)" opacity="1" style="display: block;"><g transform="matrix(1,0,0,1,-35,-35)" opacity="1" style="display: block;"><g opacity="1" transform="matrix(1,0,0,1,250,349.6310119628906)"><path class="tertiary" fill="rgb(197,156,244)" fill-opacity="1" d=" M46.48259353637695,-57.207305908203125 C46.48259353637695,-57.207305908203125 55.38507843017578,-56.045475006103516 55.38507843017578,-56.045475006103516 C88.42971801757812,-54.744789123535156 121.81500244140625,-35.69499969482422 121.81500244140625,7.784999847412109 C121.81500244140625,7.784999847412109 121.81500244140625,39.297000885009766 121.81500244140625,39.297000885009766 C121.81500244140625,47.75600051879883 114.9530029296875,54.617000579833984 106.49400329589844,54.617000579833984 C106.49400329589844,54.617000579833984 87.06400299072266,54.617000579833984 87.06400299072266,54.617000579833984 C48.57699966430664,57.60599899291992 49.06999969482422,71.43199920654297 16.898000717163086,71.43199920654297 C16.898000717163086,71.43199920654297 -16.898000717163086,71.43199920654297 -16.898000717163086,71.43199920654297 C-49.06999969482422,71.43199920654297 -48.57699966430664,57.60599899291992 -87.06400299072266,54.617000579833984 C-87.06400299072266,54.617000579833984 -106.49400329589844,54.617000579833984 -106.49400329589844,54.617000579833984 C-114.9530029296875,54.617000579833984 -121.81500244140625,47.75600051879883 -121.81500244140625,39.297000885009766 C-121.81500244140625,39.297000885009766 -121.81500244140625,7.784999847412109 -121.81500244140625,7.784999847412109 C-121.81500244140625,-35.69499969482422 -73.85624694824219,-66.41532135009766 -30.520769119262695,-62.938148498535156 C-30.520769119262695,-62.938148498535156 -20.58351707458496,-61.701900482177734 -20.58351707458496,-61.701900482177734"/></g></g><g mask="url(#__lottie_element_14_2)" style="mix-blend-mode: multiply; display: block;"><g transform="matrix(1,0,0,1,-35,-35)" opacity="0.5"><g opacity="1" transform="matrix(1,0,0,1,250,349.6310119628906)"><path class="tertiary" fill="rgb(197,156,244)" fill-opacity="1" d=" M46.48259353637695,-57.207305908203125 C46.48259353637695,-57.207305908203125 55.38507843017578,-56.045475006103516 55.38507843017578,-56.045475006103516 C88.42971801757812,-54.744789123535156 121.81500244140625,-35.69499969482422 121.81500244140625,7.784999847412109 C121.81500244140625,7.784999847412109 121.81500244140625,39.297000885009766 121.81500244140625,39.297000885009766 C121.81500244140625,47.75600051879883 114.9530029296875,54.617000579833984 106.49400329589844,54.617000579833984 C106.49400329589844,54.617000579833984 87.06400299072266,54.617000579833984 87.06400299072266,54.617000579833984 C48.57699966430664,57.60599899291992 49.06999969482422,71.43199920654297 16.898000717163086,71.43199920654297 C16.898000717163086,71.43199920654297 -16.898000717163086,71.43199920654297 -16.898000717163086,71.43199920654297 C-49.06999969482422,71.43199920654297 -48.57699966430664,57.60599899291992 -87.06400299072266,54.617000579833984 C-87.06400299072266,54.617000579833984 -106.49400329589844,54.617000579833984 -106.49400329589844,54.617000579833984 C-114.9530029296875,54.617000579833984 -121.81500244140625,47.75600051879883 -121.81500244140625,39.297000885009766 C-121.81500244140625,39.297000885009766 -121.81500244140625,7.784999847412109 -121.81500244140625,7.784999847412109 C-121.81500244140625,-35.69499969482422 -73.85624694824219,-66.41532135009766 -30.520769119262695,-62.938148498535156 C-30.520769119262695,-62.938148498535156 -20.58351707458496,-61.701900482177734 -20.58351707458496,-61.701900482177734"/></g></g></g><g transform="matrix(1,0,0,1,-35,-35)" opacity="1" style="display: block;"><g opacity="1" transform="matrix(1,0,0,1,248.75399780273438,284.14599609375)"><path class="primary" fill="rgb(249,201,192)" fill-opacity="1" d=" M-16.48471450805664,-22.5201416015625 C-16.48471450805664,-22.5201416015625 -19.337553024291992,3.7830989360809326 -19.337553024291992,3.7830989360809326 C-20.583322525024414,19.383928298950195 -8.43764877319336,32.206886291503906 8.973542213439941,33.603919982910156 C8.973542213439941,33.603919982910156 11.455907821655273,33.80239486694336 11.455907821655273,33.80239486694336 C28.86709976196289,35.19942855834961 43.999534606933594,23.6790828704834 45.245304107666016,8.078254699707031 C45.245304107666016,8.078254699707031 47.07493591308594,-2.0580809116363525 47.07493591308594,-2.0580809116363525"/></g><g opacity="0.5" transform="matrix(1,0,0,1,248.75399780273438,284.14599609375)" style="mix-blend-mode: multiply;"><path class="primary" fill="rgb(249,201,192)" fill-opacity="1" d=" M-16.097627639770508,-30.287731170654297 C-16.097627639770508,-30.287731170654297 -19.776613235473633,2.6756224632263184 -19.776613235473633,2.6756224632263184 C-19.776613235473633,6.20562219619751 -19.968360900878906,9.590585708618164 -19.086151123046875,11.653290748596191 C-7.681323528289795,11.595110893249512 -3.183657169342041,11.234098434448242 10.46458911895752,10.460702896118164 C10.46458911895752,10.460702896118164 12.90366268157959,10.323174476623535 12.90366268157959,10.323174476623535 C30.00826072692871,9.35347843170166 39.45997619628906,7.06270694732666 44.909244537353516,5.3229827880859375 C44.909244537353516,5.3229827880859375 47.96316146850586,-8.575007438659668 47.96316146850586,-8.575007438659668"/></g><g opacity="1" transform="matrix(1,0,0,1,300.9429931640625,362.25299072265625)"><path stroke-linecap="round" stroke-linejoin="round" fill-opacity="0" class="secondary" stroke="rgb(112,102,237)" stroke-opacity="1" stroke-width="7" d=" M-18.309999465942383,0.5090000033378601 C-18.309999465942383,0.5090000033378601 -18.309999465942383,0.5090000033378601 -18.309999465942383,0.5090000033378601 C-18.309999465942383,-9.619999885559082 -17.27400016784668,-17.832000732421875 -15.996999740600586,-17.832000732421875 C-15.996999740600586,-17.832000732421875 -15.753000259399414,-17.832000732421875 -15.753000259399414,-17.832000732421875 C-15.206999778747559,-17.815000534057617 -13.373000144958496,-16.492000579833984 -9.746000289916992,-12.746000289916992 C-3.246999979019165,-19.097999572753906 3.25,-19.097999572753906 9.746000289916992,-12.746000289916992 C13.373000144958496,-16.492000579833984 15.206999778747559,-17.815000534057617 15.753000259399414,-17.832000732421875 C15.753000259399414,-17.832000732421875 15.996999740600586,-17.832000732421875 15.996999740600586,-17.832000732421875 C17.27400016784668,-17.832000732421875 18.309999465942383,-9.619999885559082 18.309999465942383,0.5090000033378601 C18.309999465942383,0.5090000033378601 18.309999465942383,0.5090000033378601 18.309999465942383,0.5090000033378601 C18.309999465942383,0.5090000033378601 18.309999465942383,-0.6019999980926514 18.309999465942383,-0.6019999980926514 C18.309999465942383,-0.6019999980926514 18.309999465942383,1.6399999856948853 18.309999465942383,1.6399999856948853 C18.309999465942383,10.583000183105469 11.060999870300293,17.832000732421875 2.118000030517578,17.832000732421875 C2.118000030517578,17.832000732421875 -2.117000102996826,17.832000732421875 -2.117000102996826,17.832000732421875 C-11.0600004196167,17.832000732421875 -18.30900001525879,10.583000183105469 -18.30900001525879,1.6399999856948853 C-18.30900001525879,1.6399999856948853 -18.30900001525879,-0.6019999980926514 -18.30900001525879,-0.6019999980926514"/><path class="secondary" fill="rgb(112,102,237)" fill-opacity="1" d=" M-18.309999465942383,0.5090000033378601 C-18.309999465942383,0.5090000033378601 -18.309999465942383,0.5090000033378601 -18.309999465942383,0.5090000033378601 C-18.309999465942383,-9.619999885559082 -17.27400016784668,-17.832000732421875 -15.996999740600586,-17.832000732421875 C-15.996999740600586,-17.832000732421875 -15.753000259399414,-17.832000732421875 -15.753000259399414,-17.832000732421875 C-15.206999778747559,-17.815000534057617 -13.373000144958496,-16.492000579833984 -9.746000289916992,-12.746000289916992 C-3.246999979019165,-19.097999572753906 3.25,-19.097999572753906 9.746000289916992,-12.746000289916992 C13.373000144958496,-16.492000579833984 15.206999778747559,-17.815000534057617 15.753000259399414,-17.832000732421875 C15.753000259399414,-17.832000732421875 15.996999740600586,-17.832000732421875 15.996999740600586,-17.832000732421875 C17.27400016784668,-17.832000732421875 18.309999465942383,-9.619999885559082 18.309999465942383,0.5090000033378601 C18.309999465942383,0.5090000033378601 18.309999465942383,0.5090000033378601 18.309999465942383,0.5090000033378601 C18.309999465942383,0.5090000033378601 18.309999465942383,-0.6019999980926514 18.309999465942383,-0.6019999980926514 C18.309999465942383,-0.6019999980926514 18.309999465942383,1.6399999856948853 18.309999465942383,1.6399999856948853 C18.309999465942383,10.583000183105469 11.060999870300293,17.832000732421875 2.118000030517578,17.832000732421875 C2.118000030517578,17.832000732421875 -2.117000102996826,17.832000732421875 -2.117000102996826,17.832000732421875 C-11.0600004196167,17.832000732421875 -18.30900001525879,10.583000183105469 -18.30900001525879,1.6399999856948853 C-18.30900001525879,1.6399999856948853 -18.30900001525879,-0.6019999980926514 -18.30900001525879,-0.6019999980926514"/></g></g><g transform="matrix(0.9448018074035645,0.3276424705982208,-0.3276424705982208,0.9448018074035645,74.33837890625,-87.28871154785156)" opacity="1" style="display: block;"><g opacity="1" transform="matrix(1,0,0,1,249.43899536132812,220.58200073242188)"><path class="primary" fill="rgb(249,201,192)" fill-opacity="1" d=" M29,-118.90399932861328 C29,-118.90399932861328 62,-90.76899719238281 62,-90.76899719238281 C62,-90.76899719238281 61.965999603271484,-13.8149995803833 61.965999603271484,-13.8149995803833 C61.965999603271484,19.990999221801758 34.553001403808594,47.40399932861328 0.746999979019165,47.40399932861328 C0.746999979019165,47.40399932861328 -0.746999979019165,47.40399932861328 -0.746999979019165,47.40399932861328 C-34.553001403808594,47.40399932861328 -61.965999603271484,19.990999221801758 -61.965999603271484,-13.8149995803833 C-61.965999603271484,-13.8149995803833 -61.93199920654297,-90.34300231933594 -61.93199920654297,-90.34300231933594"/></g></g><g mask="url(#__lottie_element_26_2)" style="mix-blend-mode: multiply; display: block;"><g transform="matrix(0.9448018074035645,0.3276424705982208,-0.3276424705982208,0.9448018074035645,74.33837890625,-87.28871154785156)" opacity="0.5"><g opacity="1" transform="matrix(1,0,0,1,249.43899536132812,220.58200073242188)"><path class="primary" fill="rgb(249,201,192)" fill-opacity="1" d=" M29,-118.90399932861328 C29,-118.90399932861328 62,-90.76899719238281 62,-90.76899719238281 C62,-90.76899719238281 61.965999603271484,-13.8149995803833 61.965999603271484,-13.8149995803833 C61.965999603271484,19.990999221801758 34.553001403808594,47.40399932861328 0.746999979019165,47.40399932861328 C0.746999979019165,47.40399932861328 -0.746999979019165,47.40399932861328 -0.746999979019165,47.40399932861328 C-34.553001403808594,47.40399932861328 -61.965999603271484,19.990999221801758 -61.965999603271484,-13.8149995803833 C-61.965999603271484,-13.8149995803833 -61.93199920654297,-90.34300231933594 -61.93199920654297,-90.34300231933594"/></g></g></g><g transform="matrix(0.9448018074035645,0.3276424705982208,-0.3276424705982208,0.9448018074035645,74.33837890625,-87.28871154785156)" opacity="1" style="display: block;"><g opacity="1" transform="matrix(1,0,0,1,245.9720001220703,128.26400756835938)"><path stroke-linecap="round" stroke-linejoin="round" fill-opacity="0" class="quaternary" stroke="rgb(178,104,54)" stroke-opacity="1" stroke-width="3" d=" M65.43299865722656,48.04800033569336 C65.43299865722656,48.04800033569336 68.04900360107422,8.4399995803833 27.444000244140625,-12.734000205993652 C27.444000244140625,-12.734000205993652 15.050999641418457,33.28799819946289 -62.39899826049805,49.32699966430664 C-62.39899826049805,49.32699966430664 -88.9530029296875,-28.865999221801758 -55.792999267578125,-47.85499954223633 C-52.077999114990234,-49.981998443603516 -45.981998443603516,-49.76499938964844 -42.37699890136719,-47.457000732421875 C-37.31700134277344,-44.21799850463867 -32.24100112915039,-38.9379997253418 -29.041000366210938,-36.2130012512207 C-26.61199951171875,-34.14400100708008 -23.5,-33.04199981689453 -20.312999725341797,-33.198001861572266 C-15.920000076293945,-33.41299819946289 -9.836000442504883,-34.67300033569336 -3.8299999237060547,-37.89400100708008 C44.22200012207031,-56.99300003051758 72.99500274658203,-35.01300048828125 72.40899658203125,-6.506999969482422 C71.86399841308594,20.020000457763672 74.89900207519531,42.069000244140625 65.43299865722656,48.04800033569336z"/><path class="quaternary" fill="rgb(178,104,54)" fill-opacity="1" d=" M65.43299865722656,48.04800033569336 C65.43299865722656,48.04800033569336 68.04900360107422,8.4399995803833 27.444000244140625,-12.734000205993652 C27.444000244140625,-12.734000205993652 15.050999641418457,33.28799819946289 -62.39899826049805,49.32699966430664 C-62.39899826049805,49.32699966430664 -88.9530029296875,-28.865999221801758 -55.792999267578125,-47.85499954223633 C-52.077999114990234,-49.981998443603516 -45.981998443603516,-49.76499938964844 -42.37699890136719,-47.457000732421875 C-37.31700134277344,-44.21799850463867 -32.24100112915039,-38.9379997253418 -29.041000366210938,-36.2130012512207 C-26.61199951171875,-34.14400100708008 -23.5,-33.04199981689453 -20.312999725341797,-33.198001861572266 C-15.920000076293945,-33.41299819946289 -9.836000442504883,-34.67300033569336 -3.8299999237060547,-37.89400100708008 C44.22200012207031,-56.99300003051758 72.99500274658203,-35.01300048828125 72.40899658203125,-6.506999969482422 C71.86399841308594,20.020000457763672 74.89900207519531,42.069000244140625 65.43299865722656,48.04800033569336z"/></g></g></g></g></svg>